<svg xmlns="http://www.w3.org/2000/svg" width="752" height="32"><svg id="icon-cooking" width="32" height="32" viewBox="0 0 32 32" x="0" y="0"><path d="M8.5 6.128a.982.982 0 0 0-1.39 0l-1.629 1.63a.982.982 0 0 0 0 1.389l.897.897a11.354 11.354 0 0 1 2.895-3.142l-.774-.774H8.5zm16.598 16.599a11.428 11.428 0 0 1-3.142 2.895l.898.897a.985.985 0 0 0 1.388 0l1.63-1.63a.985.985 0 0 0 0-1.388l-.774-.774zM15.26 12.28c.024.079.032.162.024.244a.62.62 0 0 1-.228.423.634.634 0 0 1-.216.115l-2.293.686a.626.626 0 0 1-.782-.422.626.626 0 0 1 .422-.782l2.292-.686c.332-.1.681.09.781.422zm4.107 2.172a.607.607 0 0 1 .409.252.637.637 0 0 1 .111.468l-.382 2.363a.625.625 0 0 1-.72.52.628.628 0 0 1-.52-.72l.382-2.363a.64.64 0 0 1 .252-.41.629.629 0 0 1 .468-.111zm-4.339 6.018a.631.631 0 0 0 .685.133.638.638 0 0 0 .338-.341.639.639 0 0 0-.002-.481.638.638 0 0 0-.137-.203l-1.7-1.684a.63.63 0 0 0-1.063.451.627.627 0 0 0 .179.441l1.7 1.685zm2.96-7.877a.669.669 0 0 1-.733.164.665.665 0 0 1-.415-.627.656.656 0 0 1 .212-.473.664.664 0 0 1 .917.018.665.665 0 0 1 .018.917zm1.272 8.039a.654.654 0 0 1-.471.204.664.664 0 0 1-.669-.669c.001-.088.019-.175.055-.256s.086-.154.149-.215a.664.664 0 0 1 .917.018.665.665 0 0 1 .019.917zm-8.835-2.831a.658.658 0 0 0 .733.164.655.655 0 0 0 .415-.627.656.656 0 0 0-.212-.473.664.664 0 0 0-.917.018.66.66 0 0 0-.018.917z"/><path d="M22.058 22.058a8.57 8.57 0 0 1-14.704-6.036 8.57 8.57 0 0 1 14.626-6.005 8.57 8.57 0 0 1 .076 12.039zm-5.175.931c.485.079.966.156 1.402.02.446-.145.79-.495 1.132-.845.208-.212.415-.424.645-.589.227-.162.488-.293.75-.423.44-.22.882-.44 1.16-.817.273-.37.345-.854.418-1.34.043-.294.087-.588.175-.858.083-.255.215-.506.348-.76.229-.437.463-.883.463-1.377 0-.483-.233-.931-.462-1.371a5.224 5.224 0 0 1-.349-.765c-.088-.271-.133-.566-.178-.86-.074-.483-.148-.966-.414-1.34-.275-.382-.72-.6-1.162-.82a5.231 5.231 0 0 1-.749-.419 5.399 5.399 0 0 1-.62-.57c-.35-.356-.703-.717-1.157-.865-.43-.14-.905-.061-1.39.019-.295.057-.595.09-.895.098-.29 0-.587-.048-.883-.096-.485-.078-.966-.156-1.402-.02-.446.145-.79.496-1.132.845-.208.212-.415.424-.645.59-.239.16-.489.301-.75.422-.44.22-.882.44-1.16.817-.273.37-.345.854-.418 1.34a5.34 5.34 0 0 1-.175.859 5.05 5.05 0 0 1-.348.759c-.23.437-.463.884-.463 1.377 0 .483.233.931.462 1.371.134.257.265.51.349.766.088.27.133.565.178.859.074.484.148.966.414 1.34.275.382.72.601 1.162.82.262.128.523.257.749.42.217.16.418.364.62.57.35.355.703.716 1.157.864.442.14.923.06 1.407-.02.294-.048.59-.097.878-.097.29 0 .587.048.883.096z"/><path d="M4.216 3.233a5.08 5.08 0 0 1 7.178 0l.2.2c4.675-1.634 10.081-.586 13.82 3.153s4.787 9.146 3.152 13.82l.2.2a5.08 5.08 0 0 1 0 7.178l-1.629 1.63a5.076 5.076 0 0 1-7.18 0l-.543-.544a13.308 13.308 0 0 1-12.83-3.456 13.305 13.305 0 0 1-3.455-12.829l-.544-.543a5.076 5.076 0 0 1 0-7.18l1.63-1.63zM9.98 4.648a3.078 3.078 0 0 0-4.35 0L4 6.278a3.078 3.078 0 0 0 0 4.35l1.403 1.402A11.316 11.316 0 0 0 19.97 26.597L21.373 28a3.078 3.078 0 0 0 4.35 0l1.63-1.63a3.078 3.078 0 0 0 0-4.35l-1.142-1.141C28.221 16.673 27.483 11.483 24 8s-8.673-4.22-12.879-2.211L9.98 4.648z"/></svg><svg id="icon-servings" width="32" height="32" viewBox="0 0 32 32" x="48" y="0"><path fill="none" stroke-miterlimit="10" stroke-width="1.829" stroke="#000" d="M29.387 11.687c0-2.641-2.276-5.404-2.276-4.576s.421 11.836.421 11.836l-.421 7.199a.887.887 0 0 0 1.518.629.887.887 0 0 0 .26-.629l-.235-7.24s.733-4.578.733-7.219z"/><path fill="none" stroke-linejoin="round" stroke-linecap="round" stroke-miterlimit="10" stroke-width="1.829" stroke="#000" d="M5.076 7.44s.05 1.848.05 3.603c0 1.316-.4 2.142-.969 2.473l.012 12.63a.887.887 0 0 1-1.518.629.887.887 0 0 1-.26-.629l.36-12.628c-.572-.329-.974-1.156-.974-2.476 0-1.755.05-3.603.05-3.603m1.624.001v4.26M16 24.852c4.899 0 8.87-3.971 8.87-8.87s-3.971-8.87-8.87-8.87-8.87 3.971-8.87 8.87a8.87 8.87 0 0 0 8.87 8.87z"/><path fill="none" stroke-linejoin="round" stroke-linecap="round" stroke-miterlimit="10" stroke-width="1.829" stroke="#000" d="M16.002 21.4c2.982 0 5.399-2.417 5.399-5.4a5.399 5.399 0 1 0-10.799 0 5.4 5.4 0 0 0 5.4 5.4z"/></svg><svg id="icon-prep" width="32" height="32" viewBox="0 0 32 32" x="96" y="0"><path d="M29.974 3.718a3.778 3.778 0 0 0-4.117-.813 3.773 3.773 0 0 0-1.223.823L1.228 27.735a1.084 1.084 0 0 0-.265 1.057 1.078 1.078 0 0 0 .793.747c1.545.358 3.126.539 4.712.538 4.499 0 9.003-1.465 13.237-4.336 4.274-2.898 6.751-6.172 6.855-6.311a1.077 1.077 0 0 0-.1-1.408l-2.523-2.525 6.058-6.462a3.783 3.783 0 0 0-.022-5.317zm-5.733 15.136a30.4 30.4 0 0 1-5.803 5.14c-4.64 3.13-9.423 4.402-14.248 3.791L18.5 13.112l5.741 5.743zm4.211-11.325-.024.026-6.019 6.417-2.406-2.408 6.163-6.327a1.605 1.605 0 0 1 1.763-.351 1.619 1.619 0 0 1 .525 2.639l-.003.004z"/></svg><svg id="icon-close" width="32" height="32" viewBox="0 0 32 32" x="144" y="0"><path d="m15.244 17.733-8.711 8.711c-.326.326-.741.489-1.244.489s-.919-.163-1.244-.489c-.326-.326-.489-.741-.489-1.244s.163-.919.489-1.244l8.711-8.711-8.711-8.711c-.326-.326-.489-.741-.489-1.244s.163-.919.489-1.244c.326-.326.741-.489 1.244-.489s.919.163 1.244.489l8.711 8.711 8.711-8.711c.326-.326.741-.489 1.244-.489s.919.163 1.244.489c.326.326.489.741.489 1.244s-.163.919-.489 1.244l-8.711 8.711 8.711 8.711c.326.326.489.741.489 1.244s-.163.919-.489 1.244c-.326.326-.741.489-1.244.489s-.919-.163-1.244-.489l-8.711-8.711z"/></svg><svg id="icon-search" width="32" height="32" viewBox="0 0 32 32" x="192" y="0"><path d="M22.222 19.556h-1.404l-.498-.48a11.507 11.507 0 0 0 2.791-7.52A11.559 11.559 0 0 0 9.302.222a11.557 11.557 0 0 0-4.166 20.942 11.551 11.551 0 0 0 6.42 1.947c2.862 0 5.493-1.049 7.52-2.791l.48.498v1.404l8.889 8.871 2.649-2.649-8.871-8.889zm-10.666 0c-4.427 0-8-3.573-8-8s3.573-8 8-8 8 3.573 8 8-3.573 8-8 8z"/></svg></svg>