<?xml version="1.0" encoding="utf-8"?>
<!-- Generated by IcoMoon.io -->
<svg version="1.1" xmlns="http://www.w3.org/2000/svg" xmlns:xlink="http://www.w3.org/1999/xlink" width="752" height="32" viewBox="0 0 752 32">
<svg id="icon-cooking" width="32" height="32" viewBox="0 0 32 32" x="0" y="0">
<path d="M8.5 6.128c-0.184-0.184-0.434-0.287-0.695-0.287s-0.511 0.103-0.695 0.287l-1.629 1.63c-0.184 0.184-0.287 0.434-0.287 0.695s0.103 0.51 0.287 0.694l0.897 0.897c0.757-1.221 1.74-2.287 2.895-3.142l-0.774-0.774h0.001zM25.098 22.727c-0.856 1.154-1.922 2.136-3.142 2.895l0.898 0.897c0.184 0.183 0.434 0.286 0.694 0.286s0.51-0.103 0.694-0.286l1.63-1.63c0.183-0.184 0.286-0.434 0.286-0.694s-0.103-0.51-0.286-0.694l-0.774-0.774zM15.26 12.28c0.024 0.079 0.032 0.162 0.024 0.244s-0.033 0.162-0.072 0.234c-0.039 0.073-0.092 0.137-0.156 0.189s-0.137 0.091-0.216 0.115l-2.293 0.686c-0.16 0.048-0.332 0.030-0.478-0.049s-0.256-0.213-0.304-0.373c-0.048-0.16-0.030-0.332 0.049-0.478s0.213-0.256 0.373-0.304l2.292-0.686c0.332-0.1 0.681 0.090 0.781 0.422zM19.367 14.452c0.081 0.013 0.159 0.042 0.23 0.085s0.131 0.1 0.179 0.167c0.048 0.067 0.083 0.143 0.102 0.223s0.022 0.164 0.009 0.245l-0.382 2.363c-0.026 0.164-0.117 0.312-0.252 0.409s-0.303 0.137-0.468 0.111-0.312-0.117-0.409-0.252c-0.098-0.135-0.137-0.303-0.111-0.468l0.382-2.363c0.013-0.081 0.042-0.159 0.085-0.23s0.1-0.131 0.167-0.18c0.067-0.048 0.142-0.083 0.223-0.102s0.163-0.022 0.245-0.009zM15.028 20.47c0.059 0.058 0.128 0.104 0.204 0.135s0.158 0.047 0.241 0.047 0.164-0.017 0.24-0.049c0.076-0.032 0.145-0.079 0.203-0.137s0.104-0.128 0.135-0.204c0.031-0.076 0.047-0.158 0.047-0.241s-0.017-0.164-0.049-0.24c-0.032-0.076-0.079-0.145-0.137-0.203l-1.7-1.684c-0.119-0.114-0.278-0.177-0.443-0.175s-0.322 0.069-0.438 0.186-0.181 0.275-0.182 0.44c-0.001 0.165 0.064 0.323 0.179 0.441l1.7 1.685zM17.988 12.593c-0.061 0.065-0.134 0.118-0.215 0.154s-0.169 0.056-0.258 0.058c-0.089 0.002-0.178-0.015-0.26-0.048s-0.158-0.083-0.221-0.146c-0.063-0.063-0.113-0.138-0.146-0.221s-0.049-0.171-0.048-0.26c0.002-0.089 0.021-0.177 0.058-0.258s0.089-0.154 0.154-0.215c0.126-0.116 0.291-0.179 0.462-0.176s0.334 0.073 0.455 0.194c0.121 0.121 0.19 0.284 0.194 0.455s-0.060 0.337-0.176 0.462zM19.26 20.632c-0.061 0.064-0.134 0.114-0.215 0.149s-0.168 0.054-0.256 0.055-0.176-0.016-0.257-0.049c-0.082-0.033-0.156-0.082-0.218-0.145s-0.112-0.136-0.145-0.218-0.050-0.169-0.049-0.257c0.001-0.088 0.019-0.175 0.055-0.256s0.086-0.154 0.149-0.215c0.126-0.116 0.291-0.179 0.462-0.176s0.334 0.073 0.455 0.194c0.121 0.121 0.19 0.284 0.194 0.455s-0.059 0.337-0.175 0.462zM10.425 17.801c0.060 0.065 0.134 0.118 0.215 0.154s0.169 0.056 0.258 0.058c0.089 0.002 0.178-0.014 0.26-0.048s0.158-0.083 0.221-0.146c0.063-0.063 0.113-0.138 0.146-0.221s0.050-0.171 0.048-0.26c-0.002-0.089-0.021-0.177-0.058-0.258s-0.089-0.154-0.154-0.215c-0.126-0.116-0.291-0.179-0.462-0.176s-0.334 0.073-0.455 0.194c-0.121 0.121-0.191 0.284-0.194 0.455s0.060 0.337 0.176 0.462z"></path>
<path d="M22.058 22.058c-0.792 0.812-1.737 1.459-2.781 1.903s-2.165 0.676-3.3 0.684c-1.134 0.007-2.259-0.211-3.308-0.642s-2.003-1.066-2.805-1.868c-0.802-0.802-1.437-1.756-1.868-2.805s-0.649-2.174-0.642-3.308c0.007-1.134 0.24-2.256 0.684-3.3s1.091-1.989 1.903-2.781c1.614-1.573 3.782-2.447 6.035-2.433s4.41 0.916 6.004 2.509c1.593 1.594 2.495 3.751 2.509 6.004s-0.86 4.422-2.433 6.035zM16.883 22.989c0.485 0.079 0.966 0.156 1.402 0.020 0.446-0.145 0.79-0.495 1.132-0.845 0.208-0.212 0.415-0.424 0.645-0.589 0.227-0.162 0.488-0.293 0.75-0.423 0.44-0.22 0.882-0.44 1.16-0.817 0.273-0.37 0.345-0.854 0.418-1.34 0.043-0.294 0.087-0.588 0.175-0.858 0.083-0.255 0.215-0.506 0.348-0.76 0.229-0.437 0.463-0.883 0.463-1.377 0-0.483-0.233-0.931-0.462-1.371-0.137-0.245-0.253-0.501-0.349-0.765-0.088-0.271-0.133-0.566-0.178-0.86-0.074-0.483-0.148-0.966-0.414-1.34-0.275-0.382-0.72-0.6-1.162-0.82-0.261-0.119-0.511-0.259-0.749-0.419-0.221-0.174-0.429-0.364-0.62-0.57-0.35-0.356-0.703-0.717-1.157-0.865-0.43-0.14-0.905-0.061-1.39 0.019-0.295 0.057-0.595 0.090-0.895 0.098-0.29 0-0.587-0.048-0.883-0.096-0.485-0.078-0.966-0.156-1.402-0.020-0.446 0.145-0.79 0.496-1.132 0.845-0.208 0.212-0.415 0.424-0.645 0.59-0.239 0.16-0.489 0.301-0.75 0.422-0.44 0.22-0.882 0.44-1.16 0.817-0.273 0.37-0.345 0.854-0.418 1.34-0.035 0.291-0.093 0.578-0.175 0.859-0.095 0.262-0.211 0.516-0.348 0.759-0.23 0.437-0.463 0.884-0.463 1.377 0 0.483 0.233 0.931 0.462 1.371 0.134 0.257 0.265 0.51 0.349 0.766 0.088 0.27 0.133 0.565 0.178 0.859 0.074 0.484 0.148 0.966 0.414 1.34 0.275 0.382 0.72 0.601 1.162 0.82 0.262 0.128 0.523 0.257 0.749 0.42 0.217 0.16 0.418 0.364 0.62 0.57 0.35 0.355 0.703 0.716 1.157 0.864 0.442 0.14 0.923 0.060 1.407-0.020 0.294-0.048 0.59-0.097 0.878-0.097 0.29 0 0.587 0.048 0.883 0.096z"></path>
<path d="M4.216 3.233c0.952-0.951 2.243-1.486 3.589-1.486s2.637 0.534 3.589 1.486l0.2 0.2c4.675-1.634 10.081-0.586 13.82 3.153s4.787 9.146 3.152 13.82l0.2 0.2c0.951 0.952 1.486 2.243 1.486 3.589s-0.534 2.637-1.486 3.589l-1.629 1.63c-0.952 0.952-2.243 1.486-3.59 1.486s-2.637-0.535-3.59-1.486l-0.543-0.544c-2.254 0.599-4.625 0.594-6.877-0.012s-4.305-1.794-5.953-3.444c-1.649-1.648-2.837-3.701-3.443-5.953s-0.611-4.623-0.012-6.876l-0.544-0.543c-0.952-0.952-1.486-2.243-1.486-3.59s0.535-2.637 1.486-3.59l1.63-1.63zM9.98 4.648c-0.577-0.576-1.359-0.9-2.175-0.9s-1.598 0.324-2.175 0.9l-1.63 1.63c-0.576 0.577-0.9 1.359-0.9 2.175s0.324 1.598 0.9 2.175l1.403 1.402c-0.761 2.034-0.922 4.244-0.461 6.367s1.522 4.068 3.058 5.603c1.536 1.536 3.481 2.598 5.603 3.058s4.333 0.3 6.367-0.461l1.403 1.403c0.577 0.576 1.359 0.9 2.175 0.9s1.598-0.324 2.175-0.9l1.63-1.63c0.576-0.577 0.9-1.359 0.9-2.175s-0.324-1.598-0.9-2.175l-1.142-1.141c2.010-4.206 1.272-9.396-2.211-12.879s-8.673-4.22-12.879-2.211l-1.141-1.141z"></path>
</svg>
<svg id="icon-servings" width="32" height="32" viewBox="0 0 32 32" x="48" y="0">
<path fill="none" stroke-linejoin="miter" stroke-linecap="butt" stroke-miterlimit="10" stroke-width="1.8286" stroke="#000" d="M29.387 11.687c0-2.641-2.276-5.404-2.276-4.576s0.421 11.836 0.421 11.836l-0.421 7.199c0 0.236 0.094 0.462 0.26 0.629s0.393 0.26 0.629 0.26c0.236 0 0.462-0.094 0.629-0.26s0.26-0.393 0.26-0.629l-0.235-7.24c0 0 0.733-4.578 0.733-7.219l-0-0z"></path>
<path fill="none" stroke-linejoin="round" stroke-linecap="round" stroke-miterlimit="10" stroke-width="1.8286" stroke="#000" d="M5.076 7.44c0 0 0.050 1.848 0.050 3.603 0 1.316-0.4 2.142-0.969 2.473l0.012 12.63c0 0.236-0.094 0.462-0.26 0.629s-0.393 0.26-0.629 0.26c-0.236 0-0.462-0.094-0.629-0.26s-0.26-0.393-0.26-0.629l0.36-12.628c-0.572-0.329-0.974-1.156-0.974-2.476 0-1.755 0.050-3.603 0.050-3.603M3.451 7.44v4.26"></path>
<path fill="none" stroke-linejoin="round" stroke-linecap="round" stroke-miterlimit="10" stroke-width="1.8286" stroke="#000" d="M16 24.852c4.899 0 8.87-3.971 8.87-8.87s-3.971-8.87-8.87-8.87-8.87 3.971-8.87 8.87c0 4.899 3.971 8.87 8.87 8.87z"></path>
<path fill="none" stroke-linejoin="round" stroke-linecap="round" stroke-miterlimit="10" stroke-width="1.8286" stroke="#000" d="M16.002 21.4c2.982 0 5.399-2.417 5.399-5.4s-2.417-5.4-5.399-5.4c-2.982 0-5.4 2.417-5.4 5.4s2.417 5.4 5.4 5.4z"></path>
</svg>
<svg id="icon-prep" width="32" height="32" viewBox="0 0 32 32" x="96" y="0">
<path d="M29.974 3.718c-0.351-0.351-0.767-0.629-1.226-0.818s-0.95-0.287-1.446-0.286-0.987 0.1-1.445 0.291c-0.458 0.191-0.873 0.471-1.223 0.823l-23.406 24.007c-0.134 0.137-0.229 0.307-0.276 0.493s-0.043 0.381 0.011 0.564c0.054 0.184 0.156 0.35 0.295 0.481s0.311 0.223 0.498 0.266c1.545 0.358 3.126 0.539 4.712 0.538 4.499 0 9.003-1.465 13.237-4.336 4.274-2.898 6.751-6.172 6.855-6.311 0.156-0.207 0.231-0.464 0.213-0.723s-0.129-0.502-0.313-0.685l-2.523-2.525 6.058-6.462c0.697-0.711 1.086-1.668 1.082-2.663s-0.401-1.949-1.104-2.654zM24.241 18.854c-1.707 1.954-3.657 3.681-5.803 5.14-4.64 3.13-9.423 4.402-14.248 3.791l14.31-14.673 5.741 5.743zM28.452 7.529l-0.024 0.026-6.019 6.417-2.406-2.408 6.163-6.327c0.15-0.15 0.329-0.269 0.525-0.351s0.407-0.123 0.619-0.123c0.212 0 0.423 0.042 0.619 0.123s0.375 0.201 0.525 0.351c0.15 0.15 0.269 0.329 0.351 0.525s0.123 0.407 0.123 0.619c0 0.213-0.042 0.423-0.123 0.619s-0.201 0.375-0.351 0.525l-0.003 0.004z"></path>
</svg>
<svg id="icon-close" width="32" height="32" viewBox="0 0 32 32" x="144" y="0">
<path d="M15.244 17.733l-8.711 8.711c-0.326 0.326-0.741 0.489-1.244 0.489s-0.919-0.163-1.244-0.489c-0.326-0.326-0.489-0.741-0.489-1.244s0.163-0.919 0.489-1.244l8.711-8.711-8.711-8.711c-0.326-0.326-0.489-0.741-0.489-1.244s0.163-0.919 0.489-1.244c0.326-0.326 0.741-0.489 1.244-0.489s0.919 0.163 1.244 0.489l8.711 8.711 8.711-8.711c0.326-0.326 0.741-0.489 1.244-0.489s0.919 0.163 1.244 0.489c0.326 0.326 0.489 0.741 0.489 1.244s-0.163 0.919-0.489 1.244l-8.711 8.711 8.711 8.711c0.326 0.326 0.489 0.741 0.489 1.244s-0.163 0.919-0.489 1.244c-0.326 0.326-0.741 0.489-1.244 0.489s-0.919-0.163-1.244-0.489l-8.711-8.711z"></path>
</svg>
<svg id="icon-search" width="32" height="32" viewBox="0 0 32 32" x="192" y="0">
<path d="M22.222 19.556h-1.404l-0.498-0.48c1.802-2.091 2.793-4.76 2.791-7.52 0-2.285-0.678-4.52-1.947-6.42s-3.075-3.381-5.186-4.256c-2.111-0.875-4.435-1.103-6.676-0.658s-4.301 1.546-5.917 3.163c-1.616 1.616-2.717 3.675-3.163 5.917s-0.217 4.565 0.658 6.676c0.875 2.112 2.356 3.916 4.256 5.186s4.134 1.947 6.42 1.947c2.862 0 5.493-1.049 7.52-2.791l0.48 0.498v1.404l8.889 8.871 2.649-2.649-8.871-8.889zM11.556 19.556c-4.427 0-8-3.573-8-8s3.573-8 8-8c4.427 0 8 3.573 8 8s-3.573 8-8 8z"></path>
</svg>
</svg>
